<svg xmlns="http://www.w3.org/2000/svg"  viewBox="0 0 50 50" width="50px" height="50px"><path d="M 12 3 C 11.735 3 11.480969 3.1049687 11.292969 3.2929688 L 7.2929688 7.2929688 C 7.1049688 7.4809687 7 7.735 7 8 L 7 11.611328 C 5.687 11.664328 4.3320313 12.713859 4.3320312 14.630859 C 4.3320312 15.315859 4.5018594 15.887703 4.7558594 16.345703 C 4.7838594 16.733703 4.8698906 17.087094 4.9628906 17.371094 C 4.9648906 17.453094 4.99 17.552625 5 17.640625 L 5 25 C 5 37.167 22.908828 47.932313 24.423828 48.820312 C 24.590828 48.934313 24.791 49 25 49 C 25.242 49 25.468531 48.913625 25.644531 48.765625 C 26.244531 48.409625 28.162547 47.23475 30.560547 45.46875 C 30.754547 45.90775 31.085109 46.279328 31.537109 46.486328 L 31.605469 46.517578 C 32.034469 46.944578 32.664516 47.234375 33.478516 47.234375 C 34.144516 47.234375 34.746812 46.961234 35.507812 46.615234 C 35.966813 46.407234 36.732937 46.057437 37.085938 46.023438 C 37.833937 45.950437 38.478906 45.463672 38.753906 44.763672 L 40.941406 39.185547 C 41.144406 38.669547 41.123766 38.091797 40.884766 37.591797 C 40.699766 37.204797 40.394484 36.893359 40.021484 36.693359 C 42.856484 33.188359 44.970703 29.178 44.970703 25 L 44.970703 17 L 44.972656 17 C 44.972656 16.551 44.672234 16.157109 44.240234 16.037109 C 44.193234 16.024109 39.566062 14.708656 38.039062 11.722656 C 37.925063 11.500656 38.014594 11.311234 38.058594 11.240234 C 38.101594 11.167234 38.231422 11 38.482422 11 C 38.662422 11 38.829687 11.111828 38.929688 11.298828 C 39.642688 12.631828 41.172844 12.995 41.964844 13 C 42.213844 12.99 42.486781 12.895984 42.675781 12.708984 C 42.863781 12.520984 42.970703 12.266 42.970703 12 L 42.970703 8 C 42.970703 7.735 42.865734 7.4809687 42.677734 7.2929688 L 38.677734 3.2929688 C 38.490734 3.1049687 38.237656 3 37.972656 3 L 27.511719 3 C 27.174719 3 26.860781 3.1691719 26.675781 3.4511719 L 25 6 L 23.296875 3.4453125 C 23.110875 3.1673125 22.798844 3 22.464844 3 L 12 3 z M 28.005859 7.0136719 C 28.005859 7.0136719 28.525484 7.5580938 29.021484 8.3710938 C 28.856484 9.1080938 27.650391 9.7050781 27.650391 9.7050781 C 27.802391 10.213078 29.005859 12.112344 29.005859 13.027344 C 29.005859 13.941344 27.244141 18.583687 27.244141 19.929688 C 27.244141 21.275687 28.107422 21.466797 28.107422 21.466797 C 28.072422 21.536797 28.028516 21.592672 27.978516 21.638672 C 27.961516 21.654672 27.940875 21.664734 27.921875 21.677734 C 27.886875 21.702734 27.8515 21.727141 27.8125 21.744141 C 27.7875 21.755141 27.760375 21.759578 27.734375 21.767578 C 27.698375 21.778578 27.663 21.790875 27.625 21.796875 C 27.597 21.800875 27.568062 21.800734 27.539062 21.802734 C 27.504062 21.804734 27.470547 21.807641 27.435547 21.806641 C 27.394547 21.805641 27.355406 21.800875 27.316406 21.796875 C 27.291406 21.793875 27.266187 21.792063 27.242188 21.789062 C 27.203187 21.783062 27.167766 21.774578 27.134766 21.767578 C 27.116766 21.763578 27.094125 21.759859 27.078125 21.755859 C 27.043125 21.746859 27.016188 21.738469 26.992188 21.730469 C 26.985187 21.728469 26.972797 21.726609 26.966797 21.724609 C 26.941797 21.716609 26.925781 21.710937 26.925781 21.710938 L 26.933594 22.357422 C 27.001594 22.384422 27.095172 22.444531 27.201172 22.519531 C 27.220172 22.532531 27.237813 22.544594 27.257812 22.558594 C 27.365813 22.638594 27.489906 22.737469 27.628906 22.855469 C 27.655906 22.878469 27.684891 22.904687 27.712891 22.929688 C 27.859891 23.056687 28.015453 23.194469 28.189453 23.355469 C 28.198453 23.363469 28.20975 23.374813 28.21875 23.382812 C 28.39375 23.544812 28.58325 23.721156 28.78125 23.910156 C 28.81225 23.939156 28.842047 23.968047 28.873047 23.998047 C 29.080047 24.196047 29.296437 24.406 29.523438 24.625 C 29.556438 24.657 29.588094 24.688703 29.621094 24.720703 C 29.876094 24.967703 30.143016 25.225234 30.416016 25.490234 C 30.613016 25.681234 30.814578 25.875266 31.017578 26.072266 C 31.074578 26.128266 31.1295 26.180328 31.1875 26.236328 C 31.4235 26.463328 31.663297 26.692875 31.904297 26.921875 C 31.965297 26.979875 32.026891 27.037703 32.087891 27.095703 C 32.336891 27.330703 32.586891 27.563922 32.837891 27.794922 L 32.939453 27.888672 C 33.176453 28.105672 33.412484 28.317391 33.646484 28.525391 C 33.687484 28.562391 33.728531 28.600719 33.769531 28.636719 C 34.015531 28.853719 34.259047 29.062672 34.498047 29.263672 C 34.550047 29.306672 34.601344 29.348625 34.652344 29.390625 C 34.891344 29.589625 35.127469 29.780078 35.355469 29.955078 C 35.389469 29.981078 35.422078 30.004297 35.455078 30.029297 C 35.671078 30.193297 35.881031 30.346375 36.082031 30.484375 C 36.109031 30.503375 36.137062 30.524969 36.164062 30.542969 C 36.374063 30.683969 36.573672 30.802203 36.763672 30.908203 C 36.802672 30.930203 36.840906 30.952656 36.878906 30.972656 C 37.063906 31.070656 37.239391 31.151031 37.400391 31.207031 C 37.425391 31.216031 37.448656 31.220516 37.472656 31.228516 C 37.625656 31.276516 37.766578 31.304594 37.892578 31.308594 C 37.901578 31.308594 37.915781 31.314453 37.925781 31.314453 C 37.929781 31.314453 37.931547 31.3125 37.935547 31.3125 C 38.035547 31.3115 38.123125 31.292766 38.203125 31.259766 C 38.224125 31.250766 38.241719 31.234656 38.261719 31.222656 C 38.316719 31.190656 38.367156 31.151609 38.410156 31.099609 C 38.430156 31.075609 38.449797 31.047531 38.466797 31.019531 C 38.502797 30.961531 38.530687 30.892453 38.554688 30.814453 C 38.565688 30.780453 38.577938 30.748937 38.585938 30.710938 C 38.611938 30.587937 38.628906 30.452109 38.628906 30.287109 C 38.628906 26.992109 31.708984 19.576891 31.708984 15.587891 C 31.708984 12.762891 33.544344 12.326172 35.027344 12.326172 C 35.694344 12.326172 36.605469 15.246094 36.605469 15.246094 C 36.605469 15.246094 35.982203 16.517578 34.533203 16.517578 C 34.533203 16.517578 34.518281 16.397797 34.488281 16.216797 C 34.442281 15.945797 34.362094 15.538219 34.246094 15.199219 C 34.129094 14.860219 33.978109 14.589844 33.787109 14.589844 C 33.678109 14.589844 33.570234 14.690281 33.490234 14.988281 C 33.410234 15.286281 33.357422 15.779453 33.357422 16.564453 C 33.357422 20.749453 40.914062 27.431938 40.914062 30.710938 C 40.914062 31.757938 40.235125 32.923828 39.078125 32.923828 C 36.701125 32.923828 35.359375 31.017578 35.359375 31.017578 C 35.359375 31.017578 35.712891 34.476547 35.712891 35.935547 C 35.712891 36.062547 35.745016 36.185641 35.791016 36.306641 C 35.802016 36.334641 35.813172 36.362625 35.826172 36.390625 C 35.880172 36.505625 35.947156 36.616609 36.035156 36.724609 C 36.048156 36.740609 36.064125 36.755484 36.078125 36.771484 C 36.160125 36.867484 36.255422 36.959828 36.357422 37.048828 C 36.386422 37.073828 36.413359 37.098047 36.443359 37.123047 C 36.560359 37.219047 36.683453 37.311437 36.814453 37.398438 C 36.845453 37.418438 36.87525 37.437031 36.90625 37.457031 C 37.02225 37.531031 37.141719 37.602922 37.261719 37.669922 L 37.351562 37.720703 C 37.493563 37.797703 37.634438 37.868594 37.773438 37.933594 C 37.802438 37.947594 37.830375 37.959656 37.859375 37.972656 C 37.993375 38.034656 38.124094 38.091578 38.246094 38.142578 C 38.251094 38.144578 38.256719 38.148391 38.261719 38.150391 C 38.730719 38.346391 39.078125 38.455078 39.078125 38.455078 L 36.890625 44.033203 C 35.690625 44.151203 34.019516 45.232422 33.478516 45.232422 C 32.937516 45.232422 32.9375 44.927734 32.9375 44.927734 L 32.371094 44.667969 C 32.371094 44.432969 32.421281 44.211094 32.488281 43.996094 C 32.651281 43.480094 32.977453 43.03675 33.314453 42.71875 C 33.322453 42.71075 33.331844 42.703313 33.339844 42.695312 C 33.407844 42.632312 33.475969 42.577391 33.542969 42.525391 C 33.574969 42.500391 33.606672 42.477078 33.638672 42.455078 C 33.690672 42.419078 33.740063 42.386422 33.789062 42.357422 C 33.839062 42.328422 33.885641 42.304203 33.931641 42.283203 C 33.963641 42.268203 33.997344 42.251234 34.027344 42.240234 C 34.103344 42.213234 34.173469 42.195312 34.230469 42.195312 C 34.285469 42.195312 34.338625 42.209562 34.390625 42.226562 C 34.439625 42.243563 34.488156 42.266922 34.535156 42.294922 C 34.878156 42.501922 35.123047 42.972656 35.123047 42.972656 L 35.501953 42.972656 C 35.718953 42.791656 35.8555 41.879203 35.9375 41.033203 L 35.9375 41.03125 C 36.0145 40.23025 36.042969 39.488281 36.042969 39.488281 C 36.042969 39.488281 36.025281 39.48075 35.988281 39.46875 C 35.979281 39.46575 35.959266 39.461984 35.947266 39.458984 C 35.912266 39.448984 35.875359 39.437781 35.818359 39.425781 C 35.793359 39.420781 35.754609 39.417109 35.724609 39.412109 C 35.665609 39.402109 35.60925 39.392766 35.53125 39.384766 C 35.48625 39.379766 35.425047 39.379953 35.373047 39.376953 C 35.298047 39.372953 35.231578 39.365234 35.142578 39.365234 C 35.136578 39.365234 35.127094 39.365234 35.121094 39.365234 C 35.033094 39.365234 34.926219 39.376813 34.824219 39.382812 C 34.739219 39.387813 34.664359 39.388437 34.568359 39.398438 C 34.450359 39.410438 34.310734 39.436031 34.177734 39.457031 C 34.075734 39.473031 33.984047 39.483859 33.873047 39.505859 C 33.712047 39.538859 33.526703 39.589719 33.345703 39.636719 C 33.239703 39.664719 33.14525 39.682797 33.03125 39.716797 C 32.72525 39.806797 32.396063 39.917687 32.039062 40.054688 C 28.626062 40.054688 28.34375 29.320312 28.34375 29.320312 C 26.43675 27.790312 22.228516 27.603516 22.228516 27.603516 C 22.228516 27.603516 20.251437 31.058594 19.023438 31.058594 C 17.795438 31.058594 14.793688 28.261719 13.929688 28.261719 C 13.065687 28.261719 10.678375 30.898438 9.859375 30.898438 C 9.040375 30.898438 9.0878906 30.535156 9.0878906 30.535156 C 9.0878906 30.535156 9.0745 30.541875 9.0625 30.546875 C 9.0585 30.548875 9.051875 30.550734 9.046875 30.552734 C 9.025875 30.560734 8.99975 30.568359 8.96875 30.568359 C 8.96475 30.568359 8.9610313 30.566406 8.9570312 30.566406 C 8.9370313 30.565406 8.9155312 30.559781 8.8945312 30.550781 C 8.8865313 30.546781 8.8790938 30.540156 8.8710938 30.535156 C 8.8540938 30.523156 8.8372656 30.507328 8.8222656 30.486328 C 8.8142656 30.475328 8.8068281 30.461266 8.7988281 30.447266 C 8.7838281 30.420266 8.7717188 30.385703 8.7617188 30.345703 C 8.7567187 30.326703 8.7500938 30.309109 8.7460938 30.287109 C 8.7330938 30.219109 8.7246094 30.139156 8.7246094 30.035156 C 8.7266094 29.310156 9 28.695312 9 28.695312 C 9 28.695312 8.982125 28.708609 8.953125 28.724609 C 8.945125 28.728609 8.930875 28.735234 8.921875 28.740234 C 8.894875 28.755234 8.867125 28.770109 8.828125 28.787109 C 8.811125 28.795109 8.7885312 28.800594 8.7695312 28.808594 C 8.7325312 28.823594 8.6943438 28.839562 8.6523438 28.851562 C 8.6273437 28.858563 8.6021719 28.858281 8.5761719 28.863281 C 8.5351719 28.871281 8.495125 28.881812 8.453125 28.882812 C 8.418125 28.883813 8.3836094 28.873187 8.3496094 28.867188 C 8.3206094 28.862188 8.2897187 28.860609 8.2617188 28.849609 C 8.2267187 28.835609 8.1960625 28.80625 8.1640625 28.78125 C 8.1410625 28.76325 8.11375 28.752562 8.09375 28.726562 C 8.06175 28.687562 8.0405781 28.626359 8.0175781 28.568359 C 8.0045781 28.537359 7.9865625 28.517469 7.9765625 28.480469 C 7.9485625 28.374469 7.9316406 28.242078 7.9316406 28.080078 C 7.9316406 26.761078 9.9316406 26.052734 9.9316406 26.052734 C 10.011641 26.067734 10.114469 26.08175 10.230469 26.09375 C 10.269469 26.09775 10.316375 26.101469 10.359375 26.105469 C 10.443375 26.113469 10.531906 26.121906 10.628906 26.128906 C 10.685906 26.132906 10.745641 26.134672 10.806641 26.138672 C 10.904641 26.144672 11.004328 26.149297 11.111328 26.154297 C 11.177328 26.157297 11.245453 26.161062 11.314453 26.164062 C 11.424453 26.168063 11.538297 26.171781 11.654297 26.175781 C 11.729297 26.177781 11.803859 26.181594 11.880859 26.183594 C 12.001859 26.186594 12.125 26.189406 12.25 26.191406 C 12.324 26.192406 12.396656 26.194312 12.472656 26.195312 C 12.624656 26.198313 12.777641 26.200172 12.931641 26.201172 C 12.981641 26.202172 13.030078 26.202125 13.080078 26.203125 C 13.286078 26.205125 13.491359 26.206031 13.693359 26.207031 L 13.851562 26.207031 C 13.999562 26.208031 14.146062 26.208984 14.289062 26.208984 L 14.345703 26.208984 C 14.474703 26.208984 14.599656 26.208031 14.722656 26.207031 L 14.757812 26.207031 C 14.914813 26.207031 15.065984 26.206078 15.208984 26.205078 C 15.263984 26.205078 15.312234 26.205078 15.365234 26.205078 C 15.453234 26.204078 15.539141 26.204125 15.619141 26.203125 C 15.687141 26.202125 15.745641 26.202172 15.806641 26.201172 C 15.850641 26.201172 15.893594 26.199219 15.933594 26.199219 C 16.002594 26.198219 16.063094 26.198266 16.121094 26.197266 C 16.151094 26.197266 16.177078 26.197266 16.205078 26.197266 C 16.250078 26.197266 16.291172 26.195312 16.326172 26.195312 C 16.371172 26.194312 16.405547 26.195312 16.435547 26.195312 C 16.489547 26.194312 16.525391 26.193359 16.525391 26.193359 C 16.525391 26.193359 15.480469 24.761922 15.480469 22.419922 C 15.480469 20.077922 16.621094 18.150391 16.621094 18.150391 C 16.621094 18.150391 15.601563 17.865812 15.601562 17.132812 C 15.601562 16.399812 16.013672 15.724609 16.013672 15.724609 C 16.013672 15.724609 15.980203 16.673828 17.033203 16.673828 C 18.086203 16.673828 20.160156 15.492187 20.160156 15.492188 C 20.030156 15.435187 19.890047 15.399047 19.748047 15.373047 C 19.700047 15.364047 19.652516 15.361469 19.603516 15.355469 C 19.507516 15.344469 19.413406 15.334031 19.316406 15.332031 C 19.300406 15.332031 19.283578 15.328125 19.267578 15.328125 C 19.177578 15.328125 19.089953 15.332844 19.001953 15.339844 L 18.990234 15.339844 C 18.873234 15.348844 18.760344 15.363859 18.652344 15.380859 C 18.622344 15.385859 18.595406 15.391484 18.566406 15.396484 C 18.483406 15.411484 18.405031 15.425406 18.332031 15.441406 C 18.312031 15.445406 18.292438 15.450078 18.273438 15.455078 C 18.185437 15.476078 18.108016 15.496625 18.041016 15.515625 C 18.025016 15.520625 18.015 15.523344 18 15.527344 C 17.947 15.542344 17.904094 15.555406 17.871094 15.566406 C 17.857094 15.571406 17.85375 15.571219 17.84375 15.574219 C 17.81575 15.584219 17.796875 15.591797 17.796875 15.591797 C 17.796875 15.015797 16.941406 14.042969 16.941406 14.042969 L 17.617188 13.664062 L 18.132812 14.042969 L 19.980469 14.042969 C 19.967469 13.881969 19.942156 13.736516 19.910156 13.603516 C 19.899156 13.557516 19.882141 13.521516 19.869141 13.478516 C 19.844141 13.397516 19.821062 13.315094 19.789062 13.246094 C 19.769063 13.202094 19.743703 13.167906 19.720703 13.128906 C 19.688703 13.071906 19.656141 13.013844 19.619141 12.964844 C 19.592141 12.928844 19.56125 12.898188 19.53125 12.867188 C 19.49325 12.826187 19.456063 12.783047 19.414062 12.748047 C 19.381062 12.720047 19.345547 12.699781 19.310547 12.675781 C 19.267547 12.646781 19.224688 12.61675 19.179688 12.59375 C 19.142688 12.57375 19.103453 12.558969 19.064453 12.542969 C 19.018453 12.523969 18.973781 12.505234 18.925781 12.490234 C 18.884781 12.478234 18.843734 12.467984 18.802734 12.458984 C 18.754734 12.447984 18.707203 12.438641 18.658203 12.431641 C 18.616203 12.425641 18.57325 12.421969 18.53125 12.417969 C 18.48225 12.413969 18.434719 12.409203 18.386719 12.408203 C 18.368719 12.408203 18.350031 12.40625 18.332031 12.40625 C 18.318031 12.40625 18.305016 12.408203 18.291016 12.408203 C 18.149016 12.410203 18.012813 12.422406 17.882812 12.441406 C 17.861812 12.444406 17.842266 12.447172 17.822266 12.451172 C 17.694266 12.473172 17.575656 12.498391 17.472656 12.525391 C 17.456656 12.529391 17.446641 12.532109 17.431641 12.537109 C 17.331641 12.564109 17.2475 12.592281 17.1875 12.613281 C 17.1745 12.617281 17.177016 12.617094 17.166016 12.621094 C 17.115016 12.639094 17.080078 12.652344 17.080078 12.652344 L 15.53125 10.765625 L 15.351562 9.515625 C 15.351562 9.515625 15.368531 9.5212969 15.394531 9.5292969 C 15.405531 9.5332969 15.410734 9.5340625 15.427734 9.5390625 C 15.467734 9.5510625 15.519844 9.5659844 15.589844 9.5839844 C 15.590844 9.5839844 15.59175 9.5859375 15.59375 9.5859375 C 15.65875 9.6029375 15.738219 9.6187188 15.824219 9.6367188 C 15.848219 9.6417188 15.870484 9.6453906 15.896484 9.6503906 C 15.991484 9.6683906 16.093078 9.6852188 16.205078 9.6992188 C 16.209078 9.6992188 16.211844 9.7011719 16.214844 9.7011719 C 16.323844 9.7141719 16.442453 9.7225156 16.564453 9.7285156 C 16.596453 9.7305156 16.627156 9.7314219 16.660156 9.7324219 C 16.694156 9.7334219 16.727719 9.734375 16.761719 9.734375 C 16.789719 9.734375 16.820609 9.7295156 16.849609 9.7285156 C 16.982609 9.7255156 17.118812 9.7133125 17.257812 9.6953125 C 17.314812 9.6883125 17.368781 9.681875 17.425781 9.671875 C 17.615781 9.636875 17.807141 9.590625 17.994141 9.515625 C 19.225141 9.018625 19.047953 8.0858594 19.126953 8.0058594 C 19.133953 8.0008594 19.172516 7.9942344 19.228516 7.9902344 C 19.245516 7.9892344 19.268062 7.9892813 19.289062 7.9882812 C 19.339063 7.9852812 19.400656 7.9824688 19.472656 7.9804688 C 19.501656 7.9794687 19.527547 7.9785156 19.560547 7.9785156 C 19.658547 7.9765156 19.768625 7.9756094 19.890625 7.9746094 C 19.918625 7.9746094 19.947563 7.9736563 19.976562 7.9726562 C 20.099563 7.9716562 20.233047 7.9726563 20.373047 7.9726562 L 20.537109 7.9726562 C 20.654109 7.9726562 20.775437 7.9716562 20.898438 7.9726562 C 20.952437 7.9726562 21.003594 7.9736094 21.058594 7.9746094 C 21.197594 7.9756094 21.339469 7.9755625 21.480469 7.9765625 C 21.566469 7.9775625 21.652281 7.9775156 21.738281 7.9785156 C 21.869281 7.9795156 22.000906 7.9804219 22.128906 7.9824219 C 22.201906 7.9834219 22.27275 7.984375 22.34375 7.984375 C 22.42675 7.985375 22.505937 7.9872812 22.585938 7.9882812 C 22.678937 7.9892813 22.770422 7.9892344 22.857422 7.9902344 C 23.279422 7.9942344 23.6195 8.0009062 23.8125 8.0039062 C 23.9245 8.0059063 23.992188 8.0058594 23.992188 8.0058594 L 25.958984 8.4824219 C 27.011984 8.2444219 28.005859 7.0136719 28.005859 7.0136719 z M 21.757812 8.8847656 L 19.490234 8.9921875 L 20.054688 10.132812 L 21.757812 8.8847656 z M 11.488281 11 C 11.739281 11 11.870063 11.166281 11.914062 11.238281 C 11.958063 11.309281 12.046594 11.500656 11.933594 11.722656 C 11.694594 12.189656 11.368859 12.607141 11.005859 12.994141 C 10.648859 12.803141 10.283922 12.618172 9.9199219 12.451172 C 10.356922 12.190172 10.763969 11.821828 11.042969 11.298828 C 11.142969 11.111828 11.308281 11 11.488281 11 z M 7.1035156 13.601562 C 7.5345156 13.601562 8.4043125 13.943672 9.3203125 14.388672 C 9.9823125 14.710672 10.667516 15.085734 11.228516 15.427734 C 11.247516 15.439734 11.265203 15.451891 11.283203 15.462891 C 11.392203 15.529891 11.494797 15.594203 11.591797 15.658203 C 11.625797 15.680203 11.658406 15.701656 11.691406 15.722656 C 11.770406 15.774656 11.841156 15.825047 11.910156 15.873047 C 11.942156 15.896047 11.976859 15.919406 12.005859 15.941406 C 12.068859 15.987406 12.122828 16.031266 12.173828 16.072266 C 12.196828 16.090266 12.220234 16.109953 12.240234 16.126953 C 12.304234 16.182953 12.358531 16.234344 12.394531 16.277344 C 12.426531 16.315344 12.458234 16.361062 12.490234 16.414062 C 12.500234 16.430062 12.509531 16.45175 12.519531 16.46875 C 12.541531 16.50875 12.562938 16.54875 12.585938 16.59375 C 12.598937 16.61975 12.612 16.649734 12.625 16.677734 C 12.645 16.719734 12.664547 16.760641 12.685547 16.806641 C 12.701547 16.842641 12.716422 16.880969 12.732422 16.917969 C 12.752422 16.963969 12.771969 17.009594 12.792969 17.058594 C 12.822969 17.129594 12.853766 17.201391 12.884766 17.275391 C 12.902766 17.318391 12.920453 17.360297 12.939453 17.404297 C 12.961453 17.455297 12.982859 17.506594 13.005859 17.558594 C 13.024859 17.601594 13.0425 17.6445 13.0625 17.6875 C 13.0845 17.7365 13.107859 17.784984 13.130859 17.833984 L 13.193359 17.962891 C 13.218359 18.012891 13.243531 18.062328 13.269531 18.111328 C 13.291531 18.153328 13.314891 18.193375 13.337891 18.234375 C 13.364891 18.282375 13.391922 18.329953 13.419922 18.376953 C 13.443922 18.416953 13.468141 18.455141 13.494141 18.494141 C 13.523141 18.539141 13.554937 18.583953 13.585938 18.626953 C 13.612937 18.663953 13.639969 18.699375 13.667969 18.734375 C 13.699969 18.775375 13.733578 18.813563 13.767578 18.851562 C 13.797578 18.884563 13.827422 18.916266 13.857422 18.947266 C 13.893422 18.982266 13.929797 19.016828 13.966797 19.048828 C 13.999797 19.076828 14.032406 19.103906 14.066406 19.128906 C 14.105406 19.157906 14.1465 19.182031 14.1875 19.207031 C 14.2235 19.228031 14.259875 19.249578 14.296875 19.267578 C 14.340875 19.288578 14.385641 19.304313 14.431641 19.320312 C 14.470641 19.334312 14.508828 19.349375 14.548828 19.359375 C 14.597828 19.371375 14.648219 19.377766 14.699219 19.384766 C 14.741219 19.389766 14.782172 19.395484 14.826172 19.396484 C 14.839172 19.396484 14.851281 19.400391 14.863281 19.400391 C 14.940281 19.400391 15.019562 19.394859 15.101562 19.380859 C 15.101562 19.380859 14.564453 20.686422 14.564453 22.107422 C 14.564453 23.528422 14.984375 24.203125 14.984375 24.203125 C 14.984375 24.203125 14.956641 24.21175 14.931641 24.21875 C 14.922641 24.22075 14.909438 24.223562 14.898438 24.226562 C 14.857437 24.236563 14.800422 24.249719 14.732422 24.261719 C 14.724422 24.263719 14.719937 24.264625 14.710938 24.265625 C 14.636938 24.278625 14.544266 24.291734 14.447266 24.302734 C 14.423266 24.305734 14.397094 24.306594 14.371094 24.308594 C 14.278094 24.316594 14.177313 24.323219 14.070312 24.324219 C 14.051312 24.324219 14.035625 24.326172 14.015625 24.326172 C 13.907625 24.326172 13.791828 24.320594 13.673828 24.308594 C 13.645828 24.305594 13.616891 24.300875 13.587891 24.296875 C 13.496891 24.285875 13.404547 24.268047 13.310547 24.248047 C 13.268547 24.239047 13.227547 24.22975 13.185547 24.21875 C 13.098547 24.19575 13.010828 24.166766 12.923828 24.134766 C 12.882828 24.119766 12.841781 24.104891 12.800781 24.087891 C 12.692781 24.041891 12.585469 23.986828 12.480469 23.923828 C 12.462469 23.912828 12.444781 23.905531 12.425781 23.894531 C 12.304781 23.817531 12.186266 23.725094 12.072266 23.621094 C 12.040266 23.591094 12.010516 23.555438 11.978516 23.523438 C 11.897516 23.441437 11.819141 23.352906 11.744141 23.253906 C 11.708141 23.206906 11.674625 23.158422 11.640625 23.107422 C 11.571625 23.003422 11.505359 22.888578 11.443359 22.767578 C 11.415359 22.712578 11.387328 22.662516 11.361328 22.603516 C 11.278328 22.418516 11.202625 22.218188 11.140625 21.992188 L 11.769531 22.201172 L 11.140625 18.777344 C 11.140625 18.777344 10.673828 18.480656 9.6738281 18.222656 C 8.6738281 17.965656 7.1801875 18.152828 6.9921875 17.548828 C 6.9171875 17.252828 6.9921875 17.074219 6.9921875 17.074219 C 6.9921875 17.074219 6.5966875 16.281031 6.8046875 15.707031 C 6.8046875 15.707031 6.328125 15.440906 6.328125 14.628906 C 6.328125 13.816906 6.8365156 13.601562 7.1035156 13.601562 z M 26.869141 29.226562 L 27.113281 29.394531 L 27.462891 29.638672 C 27.462891 29.638672 27.451891 31.171484 27.837891 33.521484 C 27.892891 33.857484 27.957297 34.209172 28.029297 34.576172 C 27.621297 34.758172 26.986734 35.117375 26.927734 35.609375 C 26.839734 36.338375 26.956062 38.717781 26.664062 39.300781 L 22.126953 39.957031 C 22.126953 39.957031 21.6705 40.630797 21.1875 40.966797 C 21.0265 41.078797 20.862938 41.154297 20.710938 41.154297 C 20.710938 41.154297 20.538594 40.972969 20.433594 40.667969 C 20.398594 40.565969 20.372328 40.449266 20.361328 40.322266 L 19.427734 40.220703 L 19.427734 39.521484 L 19.076172 39.419922 C 19.076172 39.419922 18.771187 37.391062 19.617188 37.289062 C 19.663187 37.283062 19.722109 37.282203 19.787109 37.283203 C 19.821109 37.284203 19.861391 37.287063 19.900391 37.289062 C 19.945391 37.292063 19.990016 37.293828 20.041016 37.298828 C 20.086016 37.302828 20.135547 37.308453 20.185547 37.314453 C 20.239547 37.320453 20.293562 37.327938 20.351562 37.335938 C 20.405562 37.342937 20.461531 37.351375 20.519531 37.359375 C 20.580531 37.368375 20.643984 37.378672 20.708984 37.388672 C 20.770984 37.398672 20.834437 37.410875 20.898438 37.421875 C 20.962438 37.429875 21.031562 37.440125 21.101562 37.453125 C 21.166563 37.465125 21.231828 37.477234 21.298828 37.490234 C 21.372828 37.504234 21.447438 37.520156 21.523438 37.535156 C 21.592437 37.549156 21.662422 37.561172 21.732422 37.576172 C 21.806422 37.591172 21.880078 37.608047 21.955078 37.623047 C 22.025078 37.638047 22.097969 37.652969 22.167969 37.667969 C 22.248969 37.684969 22.329156 37.70175 22.410156 37.71875 C 22.472156 37.73275 22.533703 37.745766 22.595703 37.759766 C 22.680703 37.778766 22.764656 37.797406 22.847656 37.816406 C 22.908656 37.830406 22.969297 37.843422 23.029297 37.857422 C 23.101297 37.873422 23.171234 37.888297 23.240234 37.904297 C 23.307234 37.920297 23.376406 37.936172 23.441406 37.951172 C 23.516406 37.968172 23.587203 37.984953 23.658203 38.001953 C 23.704203 38.012953 23.750922 38.023203 23.794922 38.033203 C 23.875922 38.052203 23.951391 38.071844 24.025391 38.089844 C 24.060391 38.097844 24.097859 38.105281 24.130859 38.113281 C 24.179859 38.125281 24.222578 38.135484 24.267578 38.146484 C 24.320578 38.159484 24.375875 38.173547 24.421875 38.185547 C 24.437875 38.189547 24.449844 38.192313 24.464844 38.195312 C 24.519844 38.209313 24.572234 38.222422 24.615234 38.232422 C 24.730234 38.261422 24.796875 38.277344 24.796875 38.277344 C 24.796875 38.277344 24.693484 37.804687 24.521484 37.179688 C 24.348484 36.554688 24.105219 35.775109 23.824219 35.162109 C 23.637219 34.753109 23.433656 34.418953 23.222656 34.251953 C 23.222656 34.251953 21.71875 34.076328 21.71875 32.486328 C 21.71875 32.031328 22.039109 31.567719 22.537109 31.136719 C 22.935109 30.791719 23.448 30.4675 24 30.1875 C 24.276 30.0475 24.562609 29.916781 24.849609 29.800781 C 25.136609 29.684781 25.422172 29.582094 25.701172 29.496094 C 25.841172 29.453094 25.979281 29.413906 26.113281 29.378906 C 26.381281 29.308906 26.636141 29.257562 26.869141 29.226562 z"/></svg>