<svg xmlns="http://www.w3.org/2000/svg"  viewBox="0 0 50 50" width="50px" height="50px"><path fill="#030000" d="M15.796,42.161c0.02,0.008,0.041,0.018,0.061,0.026l-0.054-0.062 C15.803,42.125,15.798,42.151,15.796,42.161z"/><path fill="#030000" d="M25.335,12.066c-0.675,0.079-1.258,0.821-1.245,0.828c0,0,0.384,0.384,1.165,0.384 c1.357,0,1.788-1.119,1.788-1.119S26.01,11.986,25.335,12.066z"/><path fill="#030000" d="M46.61,21.474c0-0.643-0.31-1.248-0.832-1.624l-1.597-1.149c-0.341-0.245-0.75-0.376-1.168-0.376 c-0.048,0-0.096,0.002-0.145,0.005l-0.808,0.059c0.539-1.756,1.21-3.529,1.857-4.981c0.169-0.378,0.087-0.822-0.206-1.115 C37.647,6.23,28.759,2.285,28.384,2.12c-0.311-0.137-0.667-0.108-0.949,0.078c-0.282,0.185-0.453,0.5-0.453,0.837 c0,0.866-1.118,1.991-1.98,2.673c-0.862-0.68-1.979-1.802-1.979-2.673c0-0.338-0.171-0.653-0.453-0.837 c-0.282-0.185-0.639-0.213-0.949-0.078c-0.375,0.165-9.264,4.11-15.327,10.173C6,12.586,5.918,13.029,6.087,13.408 c1.775,3.98,3.754,10.391,2.593,12.181C8.547,25.792,8.337,26,7.773,26c-0.301,0-0.778-0.374-1.004-0.639 c-0.296-0.356-0.797-0.462-1.21-0.259c-0.414,0.203-0.636,0.664-0.536,1.115c0.071,0.315,1.499,6.564,4.936,11.62 c0.799,7.55,3.454,11.056,5.957,11.056c1.265,0,1.994-0.537,2.384-0.988c0.731-0.846,0.657-1.804,0.617-2.078 c-0.086-0.59-0.373-1.13-0.883-1.439c-0.126-0.076-0.255-0.139-0.386-0.187c0.191-0.171,0.35-0.38,0.465-0.617 c0.046-0.095,0.074-0.198,0.113-0.296c2.306,1.155,4.729,2.651,5.974,4.311c0.188,0.252,0.489,0.4,0.804,0.4s0.611-0.148,0.8-0.4 c2.776-3.702,11.43-6.623,11.517-6.651c0.147-0.049,0.281-0.132,0.391-0.242c5.146-5.146,7.185-14.111,7.27-14.49 c0.081-0.365-0.056-0.729-0.328-0.965c0.37-0.109,0.713-0.31,0.971-0.615C45.855,24.363,46.61,23.326,46.61,21.474z M43.013,20.325l1.597,1.149c0,1.264-0.514,1.871-0.514,1.871c-0.145-0.594-0.607-1.116-0.607-1.116 c0.213,1.297-0.788,2.085-0.788,2.085c0.033-1.231-1.133-1.84-2.456-1.84c-1.27,0-1.518,3.218-4.079,4.917l0.566,0.249 c-0.153,0.158-0.32,0.286-0.492,0.398c-0.027,0.017-0.053,0.037-0.08,0.053c-0.165,0.101-0.335,0.182-0.507,0.249 c-0.033,0.013-0.067,0.025-0.1,0.037c-0.173,0.061-0.346,0.11-0.517,0.145c-0.022,0.004-0.044,0.007-0.066,0.011 c-0.168,0.031-0.333,0.052-0.489,0.063c-0.014,0.001-0.029,0.003-0.042,0.004c-0.153,0.01-0.294,0.01-0.428,0.007 c-0.055-0.001-0.108-0.003-0.159-0.006c-0.088-0.005-0.172-0.01-0.246-0.017c-0.039-0.004-0.08-0.007-0.115-0.012 c-0.071-0.009-0.133-0.017-0.181-0.025c-0.016-0.003-0.041-0.006-0.054-0.008c-0.045-0.008-0.082-0.016-0.082-0.016 c0.102-0.51,0.549-1.903,0.971-3.169c0.422-1.266,0.819-2.405,0.819-2.405c2.656-0.034,4.879-2.395,4.879-2.395L43.013,20.325z M16.419,46.183c0.285,0,0.519-0.066,0.519-0.066s0.114,0.776-1.022,0.776c-0.789,0-2.508-1.577-3.486-6.101l0,0c0,0,0,0,0,0 c-0.062-0.289-0.121-0.594-0.177-0.908c-0.028-0.155-0.054-0.315-0.08-0.476c-0.055-0.342-0.107-0.692-0.154-1.062 c-0.014-0.115-0.027-0.236-0.04-0.353c-0.041-0.356-0.077-0.724-0.109-1.105c-0.01-0.122-0.021-0.241-0.031-0.365 c-0.035-0.469-0.063-0.957-0.084-1.465c-0.005-0.116-0.008-0.236-0.012-0.354c-0.018-0.548-0.031-1.109-0.031-1.702 c0-6.309,2.054-14.526,6.346-14.526c4.292,0,6.867,0.225,6.867,0.225l1.75-1.42c0,0-1.233-1.305-3.184-1.305 c-1.95,0-5.276-1.291-5.492-2.976c0,0,7-3,12-3c0,0,2-1,5-1c0,0,0,1-1,2c0,0,3,2,3,3c0,0,0.1,1.061-0.217,2.06 c-0.317,0.999-5.434,12.599-4.923,15.816l0.386,0.269c0,0,0.022-0.011,0.043-0.022c0.007-0.004,0.019-0.009,0.028-0.014 c0.029-0.014,0.071-0.034,0.117-0.056c0.014-0.007,0.026-0.012,0.042-0.02c0.063-0.029,0.139-0.062,0.223-0.098 c0.016-0.007,0.034-0.014,0.05-0.02c0.071-0.029,0.148-0.06,0.23-0.09c0.03-0.011,0.06-0.023,0.092-0.034 c0.094-0.034,0.193-0.068,0.297-0.1c0.014-0.004,0.027-0.009,0.042-0.014c0.115-0.035,0.236-0.067,0.358-0.096 c0.034-0.008,0.068-0.015,0.102-0.022c0.098-0.021,0.197-0.039,0.296-0.054c0.034-0.005,0.067-0.011,0.101-0.015 c0.128-0.016,0.256-0.025,0.382-0.026c0.026,0,0.051,0.003,0.077,0.003c0.087,0.002,0.174,0.008,0.258,0.019 c0.038,0.005,0.074,0.013,0.111,0.02c0.072,0.014,0.142,0.031,0.21,0.053c0.037,0.012,0.074,0.025,0.109,0.039 c0.068,0.028,0.132,0.062,0.194,0.1c0.029,0.018,0.06,0.033,0.087,0.053c0.087,0.063,0.168,0.134,0.24,0.222 c0,0,0.672,1.952-0.651,3.473c0,0,0.084-1.736-1.483-1.736c-1.568,0-1.929,0.494-1.929,0.494l-2.556-3.726l-0.338,0.856 c0,0-1.954-1.773-1.58-4.04c0,0-1.17,0.868-1.459,2.134c-0.289,1.266,0.036,2.834,0.036,2.834s-5.941,4.55-6.073,5.226 c0,0,7.798,0.37,7.798,2.468c0,0.225-0.019,0.42-0.046,0.6c-0.004,0.027-0.007,0.056-0.012,0.081 c-0.029,0.164-0.07,0.309-0.117,0.437c-0.009,0.024-0.018,0.048-0.028,0.071c-0.051,0.122-0.107,0.23-0.171,0.322 c-0.009,0.013-0.019,0.025-0.029,0.037c-0.065,0.088-0.134,0.165-0.205,0.227c-0.003,0.003-0.007,0.007-0.01,0.01 c-0.074,0.063-0.15,0.111-0.225,0.151c-0.012,0.006-0.024,0.013-0.036,0.019c-0.071,0.035-0.141,0.062-0.207,0.081 c-0.013,0.004-0.025,0.007-0.038,0.01c-0.064,0.017-0.125,0.029-0.177,0.036c-0.008,0.001-0.015,0.001-0.023,0.002 c-0.05,0.005-0.094,0.008-0.127,0.008c-0.002,0-0.005,0-0.008,0c-0.043,0-0.069-0.003-0.069-0.003l-0.511-0.53 c0,0-0.587,0.454-1.022,0.662c0,0,0.36-2.782-4.03-2.782C18.225,39.4,18,40.176,18,40.176s-1.156-2.536-2.197-2.763 c0,0,1.303,3.077,0.62,5.02l0,0c-0.033,0.095-0.066,0.189-0.109,0.278l-0.511-0.587c0,0-0.397,2.042-0.397,3.082 C15.406,46.024,15.975,46.183,16.419,46.183z M29.211,35.815c0,0,0.393,0.342,0.491,0.691c0.12,0.426-0.089,0.993-0.089,0.993 c-0.133-0.063-0.279-0.122-0.433-0.177c-0.052-0.019-0.111-0.035-0.165-0.053c-0.107-0.035-0.213-0.07-0.327-0.102 c-0.069-0.019-0.142-0.036-0.213-0.055c-0.108-0.027-0.215-0.055-0.327-0.08c-0.079-0.018-0.16-0.034-0.241-0.05 c-0.111-0.023-0.221-0.045-0.335-0.065c-0.086-0.015-0.172-0.03-0.259-0.044c-0.114-0.019-0.227-0.037-0.343-0.054 c-0.089-0.013-0.177-0.025-0.266-0.037c-0.117-0.016-0.234-0.031-0.351-0.044c-0.089-0.01-0.177-0.021-0.265-0.03 c-0.118-0.013-0.234-0.025-0.351-0.036c-0.088-0.009-0.175-0.017-0.263-0.025c-0.119-0.01-0.235-0.02-0.352-0.029 c-0.082-0.006-0.164-0.013-0.246-0.019c-0.118-0.008-0.231-0.016-0.346-0.023c-0.077-0.005-0.154-0.01-0.229-0.014 c-0.116-0.007-0.227-0.012-0.338-0.017c-0.065-0.003-0.133-0.007-0.196-0.01c-0.143-0.006-0.279-0.011-0.41-0.016 c-0.023-0.001-0.049-0.002-0.072-0.003c-0.155-0.005-0.299-0.009-0.431-0.012c-0.034-0.001-0.061-0.001-0.094-0.002 c-0.096-0.002-0.188-0.004-0.268-0.005c-0.039-0.001-0.067-0.001-0.102-0.001c-0.061-0.001-0.121-0.001-0.17-0.002 c-0.036,0-0.06,0-0.089,0c-0.022,0-0.052,0-0.07,0c-0.018,0-0.014,0-0.027,0c-0.046,0-0.074,0-0.074,0l2.043-1.675 c0.423,0.047,0.831,0.063,1.231,0.066c0.043,0,0.091,0.007,0.134,0.007c0.052,0,0.098-0.006,0.149-0.007 c0.404-0.004,0.797-0.021,1.173-0.052c0.06-0.005,0.115-0.011,0.174-0.017c0.355-0.032,0.696-0.07,1.021-0.11 c0.364-0.045,0.703-0.088,1.024-0.124c0.07-0.008,0.136-0.014,0.204-0.021c0.307-0.032,0.597-0.056,0.855-0.056 c1.38,0,0.957,1.856,0.626,2.227C30.179,36.22,29.211,35.815,29.211,35.815z"/><path fill="#030000" d="M25.743,12.045c-0.143,0-0.282,0.006-0.408,0.021c-0.675,0.079-1.258,0.821-1.245,0.828 c0,0,0.384,0.384,1.165,0.384c1.357,0,1.788-1.119,1.788-1.119S26.361,12.045,25.743,12.045z"/></svg>