<svg xmlns="http://www.w3.org/2000/svg"  viewBox="0 0 50 50" width="50px" height="50px"><path fill="#030000" d="M43.375,22.074c-0.368-0.168-0.802-0.097-1.099,0.181c-0.468,0.439-2.029,1.668-3.234,1.74 c-0.271-1.231,1.907-6.462,4.811-11.496c0.134-0.233,0.169-0.51,0.097-0.769c-0.072-0.259-0.246-0.478-0.482-0.607L27.064,2.122 c-0.331-0.181-0.736-0.161-1.048,0.053c-0.311,0.215-0.475,0.586-0.423,0.961l0.348,2.514L25,6.584l-0.941-0.935l0.35-2.522 c0.052-0.375-0.112-0.746-0.423-0.96c-0.312-0.215-0.716-0.234-1.048-0.053l-16.418,9.01c-0.236,0.129-0.41,0.348-0.482,0.607 C5.964,11.989,6,12.267,6.134,12.5c2.906,5.038,5.085,10.272,4.81,11.499c-1.18-0.057-2.761-1.301-3.233-1.743 c-0.296-0.278-0.73-0.35-1.099-0.181c-0.369,0.168-0.601,0.542-0.586,0.947c0.02,0.542,0.558,12.727,7.927,16.952L13.2,40.947 c-0.206,0.267-0.264,0.62-0.153,0.938c0.11,0.318,0.374,0.56,0.701,0.643c3.465,0.873,9.341,2.986,10.359,4.939 c0.172,0.331,0.514,0.538,0.887,0.538s0.715-0.208,0.887-0.538c0.556-1.067,2.564-2.18,4.834-3.114 c-1.371-1.561-3.977-5.628-6.522-9.05c-5.828,1.92-11.47-1.282-11.47-1.282c0.576-4.643,3.239-7.034,3.239-7.034 s1.802,0.022,3.107,0.022c3.744,0,5.932,2.694,7.693,5.441c3.127-0.023,4.824,0.552,4.824,0.552 c-0.539-3.287-14.605-8.973-16.303-11.991c-0.189-0.269-1.185-2.802-1.266-4.204c-0.081-1.401,2.256-6.666,3.718-6.747 c1.443-0.08,5.563-0.072,5.563-0.072c0.97,1.482,3.598,3.127,3.598,3.127l3.045,0.216l5.383,3.111c0,0-1.14,1.324-1.995,1.777 l0.067-0.888c0,0-2.732-0.352-4.24,0.737l1.659,1.693l1.006-0.151l-1.039,1.172l-4.173-2.43l-0.67-2.228 c0,0-3.989-3.131-6.908-3.131c-1.531,0-2.758,0.864-2.758,1.539c0,7.613,17.099,6.226,18.755,21.436c0,0-6.563-1.282-6.713-1.232 l-0.247-0.046c1.653,3.043,3.159,6.505,5.727,8.546c0.876-0.281,1.715-0.522,2.445-0.706c0.327-0.083,0.59-0.324,0.701-0.643 c0.11-0.319,0.053-0.672-0.153-0.938l-0.753-0.975c7.369-4.225,7.907-16.411,7.927-16.952 C43.975,22.615,43.744,22.242,43.375,22.074z"/><path fill="#030000" d="M15.469,30.016c0,0,0.759,3.781,6.8,2.837C20.661,29.767,15.469,30.016,15.469,30.016z"/><path fill="#030000" d="M31.091,16.394l0.842-0.44l-1.974-1.219c-0.541,0.717-0.251,0.993-0.251,0.993 C29.821,15.954,31.091,16.394,31.091,16.394z"/><g><path fill="#030000" d="M22.989,9.988c0.196,0,0.309,0,0.309,0c0.97,1.482,3.598,3.127,3.598,3.127l3.045,0.216 l5.383,3.111c0,0-1.14,1.324-1.994,1.777l0.067-0.888c0,0-0.421-0.054-1.023-0.054c-0.933,0-2.301,0.13-3.217,0.792l1.659,1.693 l1.006-0.151l-1.039,1.172l-4.173-2.43l-0.67-2.228c0,0-3.989-3.131-6.908-3.131c-1.531,0-2.758,0.864-2.758,1.539 c0,7.613,17.099,6.226,18.755,21.436c0,0-6.314-1.233-6.698-1.233c-0.007,0-0.013,0-0.016,0.001l-0.247-0.046 c2.531,4.658,4.699,10.319,10.892,10.319c3.757,0,2.983-5.022,2.983-5.022C42.595,40.178,43,41,43,41c0,4-2.884,5-5.769,5 s-5.769-1-5.769-1c-0.884-0.248-4.125-5.466-7.271-9.697c-1.345,0.443-2.679,0.613-3.936,0.613c-4.194,0-7.533-1.895-7.533-1.895 c0.576-4.643,3.239-7.034,3.239-7.034s1.802,0.022,3.107,0.022c3.744,0,5.932,2.694,7.693,5.441c0.061,0,0.122-0.001,0.182-0.001 c3.01,0,4.642,0.552,4.642,0.552c-0.539-3.287-14.605-8.973-16.303-11.991c-0.189-0.269-1.185-2.802-1.266-4.204 c-0.081-1.401,2.256-6.666,3.718-6.747C18.938,9.994,22.004,9.988,22.989,9.988 M31.091,16.394l0.842-0.44l-1.974-1.219 c-0.541,0.717-0.251,0.993-0.251,0.993C29.821,15.954,31.091,16.394,31.091,16.394 M20.447,33.004 c0.546,0,1.152-0.047,1.822-0.151c-1.384-2.658-5.427-2.842-6.523-2.842c-0.177,0-0.277,0.005-0.277,0.005 S16.068,33.004,20.447,33.004 M22.989,7.988c-1.205,0-4.138,0.007-5.364,0.075c-0.857,0.047-1.645,0.486-2.41,1.342 c-1.457,1.631-3.303,5.646-3.195,7.517c0.09,1.559,1.02,4.181,1.521,5.068l-0.001,0.001c0.545,0.969,1.642,1.915,3.269,3.005 c-0.486-0.005-0.822-0.009-0.823-0.009c-0.008,0-0.016,0-0.024,0c-0.493,0-0.969,0.182-1.336,0.512 c-0.132,0.118-3.228,2.952-3.888,8.276c-0.099,0.803,0.294,1.586,0.998,1.985c0.155,0.088,3.852,2.156,8.521,2.156 c1.073,0,2.121-0.109,3.132-0.326c0.825,1.143,1.649,2.329,2.397,3.407c3.125,4.498,3.948,5.563,5.071,5.908 C31.278,47.048,34.22,48,37.231,48C42.096,48,45,45.383,45,41c0-0.306-0.07-0.609-0.206-0.883c-0.186-0.378-0.9-1.641-2.287-2.049 c-0.186-0.055-0.376-0.081-0.564-0.081c-0.478,0-0.948,0.172-1.317,0.495c-0.515,0.451-0.764,1.133-0.66,1.81 c0.107,0.746,0.04,2.044-0.37,2.517c-0.056,0.065-0.173,0.2-0.636,0.2c-3.396,0-5.202-2.086-7.192-5.632 c0.92,0.175,1.919,0.367,2.876,0.554c0.127,0.025,0.256,0.037,0.383,0.037c0.497,0,0.981-0.185,1.353-0.527 c0.468-0.43,0.704-1.057,0.635-1.689c-1.072-9.852-8.04-13.544-13.128-16.239c-3.208-1.7-5.17-2.814-5.548-4.399 c0.177-0.065,0.415-0.12,0.691-0.12c1.434,0,3.747,1.313,5.183,2.339l0.48,1.597c0.146,0.485,0.471,0.897,0.909,1.152l4.173,2.43 c0.314,0.183,0.661,0.272,1.006,0.272c0.557,0,1.107-0.232,1.497-0.673l1.039-1.172c0.199-0.224,0.34-0.485,0.422-0.76 c0.181-0.038,0.358-0.101,0.526-0.19c1.131-0.599,2.343-1.971,2.574-2.239c0.388-0.451,0.556-1.052,0.456-1.639 c-0.1-0.587-0.456-1.099-0.971-1.397L30.942,11.6c-0.263-0.152-0.557-0.242-0.86-0.263l-2.527-0.179 c-0.929-0.631-2.151-1.602-2.584-2.264c-0.369-0.563-0.996-0.903-1.67-0.905L22.989,7.988L22.989,7.988z"/></g></svg>